<svg width="43" height="43" viewBox="0 0 43 43" fill="none" xmlns="http://www.w3.org/2000/svg">
<path d="M21.44 0C17.1996 0 13.0544 1.25743 9.52858 3.61329C6.00279 5.96915 3.25477 9.31762 1.63203 13.2353C0.0092896 17.1529 -0.415294 21.4638 0.411973 25.6227C1.23924 29.7817 3.2812 33.6019 6.27964 36.6004C9.27808 39.5988 13.0983 41.6408 17.2573 42.468C21.4162 43.2953 25.7271 42.8707 29.6447 41.248C33.5624 39.6252 36.9109 36.8772 39.2667 33.3514C41.6226 29.8256 42.88 25.6804 42.88 21.44C42.88 15.7538 40.6212 10.3004 36.6004 6.27963C32.5796 2.25885 27.1262 0 21.44 0ZM18.3772 30.6286H15.3143V12.2514H18.3772V30.6286ZM27.5657 30.6286H24.5029V12.2514H27.5657V30.6286Z" fill="#F8236C"/>
</svg>
