<svg width="49" height="49" viewBox="0 0 49 49" fill="none" xmlns="http://www.w3.org/2000/svg">
<ellipse cx="26.085" cy="24.3558" rx="18.0147" ry="18.5912" fill="white"/>
<path d="M24.5 3.0625C12.6615 3.0625 3.0625 12.6615 3.0625 24.5C3.0625 36.3385 12.6615 45.9375 24.5 45.9375C36.3385 45.9375 45.9375 36.3385 45.9375 24.5C45.9375 12.6615 36.3385 3.0625 24.5 3.0625ZM31.3954 24.8302L20.9446 32.4338C20.8873 32.475 20.8198 32.4995 20.7494 32.5048C20.6791 32.5101 20.6086 32.4959 20.5458 32.4638C20.483 32.4316 20.4303 32.3828 20.3934 32.3226C20.3566 32.2625 20.337 32.1933 20.3369 32.1228V16.9251C20.3367 16.8544 20.356 16.785 20.3928 16.7247C20.4296 16.6643 20.4824 16.6153 20.5453 16.5831C20.6082 16.5509 20.6789 16.5367 20.7493 16.5422C20.8198 16.5476 20.8874 16.5725 20.9446 16.6141L31.3954 24.2129C31.4448 24.2478 31.4851 24.2941 31.5129 24.3478C31.5407 24.4015 31.5552 24.4611 31.5552 24.5215C31.5552 24.582 31.5407 24.6416 31.5129 24.6953C31.4851 24.749 31.4448 24.7953 31.3954 24.8302Z" fill="#F8236C"/>
</svg>
